<?xml version="1.0" standalone="no"?>
<!DOCTYPE svg PUBLIC "-//W3C//DTD SVG 20010904//EN"
 "http://www.w3.org/TR/2001/REC-SVG-20010904/DTD/svg10.dtd">
<svg version="1.0" xmlns="http://www.w3.org/2000/svg"
 width="1280.000000pt" height="1040.000000pt" viewBox="0 0 1280.000000 1040.000000"
 preserveAspectRatio="xMidYMid meet">
<metadata>
Created by potrace 1.15, written by Peter Selinger 2001-2017
</metadata>
<g transform="translate(0.000000,1040.000000) scale(0.100000,-0.100000)"
fill="#000000" stroke="none">
<path d="M7790 9267 c-25 -19 -61 -74 -70 -108 -5 -18 -16 -72 -25 -121 -8
-49 -29 -130 -45 -180 -17 -51 -46 -150 -65 -222 -19 -72 -48 -165 -63 -206
-96 -249 -267 -857 -292 -1035 -6 -44 -16 -113 -23 -153 l-11 -73 -21 28 c-50
69 -77 94 -91 82 -18 -15 -29 -6 -60 51 -19 34 -76 94 -183 192 -86 79 -219
204 -296 279 -77 74 -185 175 -240 224 -55 48 -147 132 -205 186 -218 204
-447 407 -475 422 -38 19 -77 25 -82 12 -2 -6 19 -19 47 -29 35 -13 76 -42
138 -100 48 -44 123 -112 167 -151 44 -38 132 -119 195 -180 63 -61 169 -158
235 -215 66 -58 176 -159 245 -225 69 -66 192 -182 273 -259 115 -108 154
-151 177 -196 l30 -59 -17 -83 c-9 -46 -23 -87 -31 -92 -8 -4 -27 -20 -44 -35
-64 -57 -41 -214 37 -247 32 -13 33 -16 40 -84 7 -70 0 -176 -14 -198 -5 -8
-17 -6 -41 8 -76 44 -139 68 -204 78 -38 6 -69 12 -70 14 -2 2 -13 20 -25 41
-28 47 -57 54 -121 31 l-51 -18 -167 32 c-92 17 -201 35 -242 38 -41 3 -165
14 -275 24 -330 31 -378 33 -685 21 -833 -32 -1453 -122 -1992 -287 -206 -63
-273 -88 -503 -184 -571 -239 -763 -335 -1001 -501 -267 -186 -421 -325 -549
-492 -37 -48 -132 -210 -192 -327 -45 -88 -96 -289 -90 -355 7 -67 103 -352
132 -390 42 -55 210 -223 274 -275 78 -62 122 -82 275 -126 89 -26 134 -46
182 -79 73 -50 148 -75 223 -75 35 0 67 -8 101 -25 27 -14 84 -39 127 -56 46
-18 94 -46 119 -69 85 -79 170 -131 395 -247 218 -112 235 -122 317 -201 70
-68 106 -94 187 -133 110 -55 134 -69 245 -142 41 -28 112 -68 158 -90 46 -22
87 -49 93 -59 16 -30 87 -54 175 -60 62 -5 94 -13 140 -36 87 -44 129 -47 300
-23 254 37 278 41 317 62 49 25 54 24 62 -9 3 -15 22 -55 41 -89 38 -69 124
-138 217 -175 28 -12 67 -35 85 -52 31 -29 152 -204 213 -307 23 -40 32 -46
100 -68 41 -13 134 -46 207 -74 107 -40 136 -56 149 -78 11 -18 35 -34 72 -48
34 -13 80 -42 116 -74 33 -29 92 -70 130 -92 39 -21 88 -51 110 -66 22 -15 66
-35 97 -44 90 -26 266 -122 336 -185 59 -53 71 -59 200 -99 77 -24 192 -50
262 -61 104 -15 145 -26 245 -69 105 -45 128 -51 190 -51 38 -1 99 -7 135 -15
133 -29 597 -13 684 25 76 32 127 107 157 228 30 119 68 203 114 252 57 61
100 135 114 195 21 91 30 105 66 105 44 0 121 -74 165 -158 23 -43 47 -73 76
-93 57 -39 74 -65 74 -114 0 -46 17 -67 103 -124 80 -54 104 -61 184 -51 59 8
93 20 189 71 135 72 184 110 184 145 0 14 11 41 23 62 13 20 33 58 45 85 26
59 95 150 182 242 36 39 85 95 107 125 39 53 41 60 57 182 9 70 16 150 16 178
0 29 10 76 24 112 21 55 25 85 30 228 8 238 29 310 150 498 59 92 76 126 76
155 0 28 10 48 43 90 50 60 51 65 70 307 7 85 17 161 22 169 5 8 12 65 16 125
4 61 12 156 18 211 14 121 16 210 7 251 -7 30 -6 31 52 47 100 28 300 206 357
318 31 60 75 200 75 237 0 8 25 42 55 77 47 53 55 68 55 103 0 40 20 94 53
144 18 26 26 50 67 198 10 36 36 106 57 155 22 50 47 126 57 170 11 46 29 94
43 112 27 37 53 104 53 139 0 46 60 198 90 229 23 24 34 49 46 106 16 77 25
94 82 144 31 28 35 37 42 110 10 100 19 121 73 188 24 30 47 65 50 78 3 13 20
32 37 42 27 16 30 22 24 52 -4 23 2 54 21 106 37 99 44 270 15 369 -10 36 -20
108 -23 161 -2 53 -8 102 -13 110 -5 8 -9 52 -10 99 -1 83 -2 87 -43 145 -40
57 -189 197 -309 288 -72 56 -224 133 -322 163 -41 13 -131 31 -199 40 -134
18 -205 13 -516 -36 -66 -10 -187 -22 -270 -26 -134 -5 -167 -11 -305 -49 -99
-27 -187 -58 -245 -87 -49 -25 -164 -79 -255 -121 -360 -164 -489 -235 -675
-370 -138 -101 -222 -172 -360 -307 -77 -75 -208 -198 -291 -273 -139 -125
-161 -151 -290 -329 -77 -106 -150 -218 -163 -248 -13 -30 -27 -59 -32 -64 -5
-6 -24 2 -46 21 -49 38 -77 53 -102 53 -28 0 -31 9 -18 63 8 36 7 53 -3 72 -8
16 -11 41 -7 74 8 67 -8 119 -50 158 -29 28 -42 33 -82 33 -34 0 -53 6 -69 20
-12 12 -22 22 -22 23 0 2 9 43 19 92 10 50 22 124 25 167 7 84 13 107 79 323
25 83 62 206 81 275 19 69 63 206 97 305 34 99 74 227 89 285 16 58 39 137 53
175 27 77 77 287 77 328 0 13 16 48 36 77 36 53 44 90 14 67z"/>
</g>
</svg>
